<svg width="25" height="24" viewBox="0 0 25 24" fill="none" xmlns="http://www.w3.org/2000/svg">
<path fill-rule="evenodd" clip-rule="evenodd" d="M1.96088 11.9554V12.0446C1.97154 14.7301 2.94451 17.1885 4.55283 19.0931C5.01803 19.6439 5.53637 20.1485 6.09996 20.5987C6.66719 21.0519 7.28025 21.4501 7.93107 21.7853C8.86358 22.2656 9.87363 22.6165 10.9375 22.8143C11.5523 22.9286 12.1852 22.9918 12.8314 22.9993C12.8744 22.9998 12.9176 23 12.9608 23C16.6503 23 19.9155 21.1836 21.911 18.3962C22.329 17.8125 22.6912 17.1861 22.99 16.525C23.6136 15.1448 23.9608 13.613 23.9608 12C23.9608 8.73978 22.5425 5.81084 20.2892 3.79653C19.7673 3.32998 19.2006 2.91249 18.5963 2.55132C16.9481 1.56615 15.0206 1 12.9608 1C12.8489 1 12.7373 1.00167 12.6262 1.00499C10.9593 1.05479 9.38564 1.47541 7.98478 2.18719C7.03172 2.67144 6.15866 3.29045 5.39069 4.01914C4.67747 4.69587 4.05489 5.4672 3.54304 6.31302C3.18196 6.90969 2.87599 7.54343 2.63217 8.20718C2.20272 9.37631 1.96611 10.6386 1.96088 11.9554ZM21.4421 15.0186C21.7779 14.075 21.9608 13.0588 21.9608 12C21.9608 9.54265 20.9759 7.31533 19.3794 5.6912C18.5584 7.05399 17.4757 8.18424 16.2276 9.0469C16.696 10.2626 16.9494 11.5603 16.9653 12.8778C17.7301 13.0484 18.4883 13.304 19.2278 13.6488C20.0349 14.0252 20.775 14.487 21.4421 15.0186ZM16.8022 14.8954C17.3361 15.0321 17.8649 15.22 18.3825 15.4614C19.1829 15.8346 19.9025 16.3105 20.5331 16.8661C19.0297 19.2008 16.476 20.7953 13.5397 20.9817C14.5125 20.0585 15.3317 18.9405 15.9329 17.6514C16.3518 16.7531 16.6389 15.8272 16.8022 14.8954ZM14.9573 12.6219C14.9192 11.7382 14.7507 10.8684 14.4622 10.0408C11.6496 11.2998 8.32671 11.3765 5.3147 9.97197C4.97338 9.81281 4.64407 9.63837 4.32719 9.44983C4.08875 10.2584 3.96079 11.1142 3.96079 12C3.96079 13.9462 4.57851 15.748 5.62857 17.2203C7.79126 14.1875 11.3294 12.4987 14.9573 12.6219ZM7.00788 18.7502C8.73346 16.059 11.7322 14.5382 14.8194 14.6191C14.6839 15.3586 14.4528 16.093 14.1203 16.8062C13.3386 18.4825 12.1062 19.805 10.6347 20.6965C9.2713 20.3328 8.03529 19.6569 7.00788 18.7502ZM12.9608 3C14.7455 3 16.4088 3.51946 17.8079 4.41543C17.1721 5.54838 16.3202 6.4961 15.3289 7.23057C14.308 5.57072 12.8361 4.16433 10.9878 3.21692C11.6228 3.07492 12.283 3 12.9608 3ZM9.76707 4.84582C11.4071 5.61056 12.7083 6.80659 13.5988 8.23588C11.3073 9.24654 8.60809 9.30095 6.15994 8.15936C5.79471 7.98905 5.44629 7.79735 5.11546 7.58645C5.87453 6.24006 6.97017 5.10867 8.28822 4.30645C8.7876 4.44058 9.28226 4.61975 9.76707 4.84582Z" fill="#7C76BB"/>
</svg>
