<svg width="25" height="24" viewBox="0 0 25 24" fill="none" xmlns="http://www.w3.org/2000/svg">
<path fill-rule="evenodd" clip-rule="evenodd" d="M12.9608 7C10.1994 7 7.96082 9.23858 7.96082 12C7.96082 14.7614 10.1994 17 12.9608 17C15.7222 17 17.9608 14.7614 17.9608 12C17.9608 9.23858 15.7222 7 12.9608 7ZM9.96082 12C9.96082 13.6569 11.304 15 12.9608 15C14.6177 15 15.9608 13.6569 15.9608 12C15.9608 10.3431 14.6177 9 12.9608 9C11.304 9 9.96082 10.3431 9.96082 12Z" fill="#7C76BB"/>
<path d="M18.9608 5C18.4085 5 17.9608 5.44772 17.9608 6C17.9608 6.55228 18.4085 7 18.9608 7C19.5131 7 19.9608 6.55228 19.9608 6C19.9608 5.44772 19.5131 5 18.9608 5Z" fill="#7C76BB"/>
<path fill-rule="evenodd" clip-rule="evenodd" d="M5.96082 1C3.75168 1 1.96082 2.79086 1.96082 5V19C1.96082 21.2091 3.75168 23 5.96082 23H19.9608C22.17 23 23.9608 21.2091 23.9608 19V5C23.9608 2.79086 22.17 1 19.9608 1H5.96082ZM19.9608 3H5.96082C4.85625 3 3.96082 3.89543 3.96082 5V19C3.96082 20.1046 4.85625 21 5.96082 21H19.9608C21.0654 21 21.9608 20.1046 21.9608 19V5C21.9608 3.89543 21.0654 3 19.9608 3Z" fill="#7C76BB"/>
</svg>
