<svg width="25" height="24" viewBox="0 0 25 24" fill="none" xmlns="http://www.w3.org/2000/svg">
<g clip-path="url(#clip0)">
<path d="M23.9608 2.9998C23.0032 3.67528 21.9429 4.19191 20.8208 4.5298C20.2186 3.83731 19.4181 3.34649 18.5278 3.12373C17.6375 2.90096 16.7003 2.957 15.8429 3.28426C14.9855 3.61151 14.2493 4.1942 13.7338 4.95352C13.2183 5.71283 12.9485 6.61214 12.9608 7.5298V8.5298C11.2034 8.57537 9.46209 8.18561 7.89182 7.39525C6.32156 6.60488 4.97113 5.43844 3.96082 3.9998C3.96082 3.9998 -0.0391846 12.9998 8.96082 16.9998C6.90134 18.3978 4.44797 19.0987 1.96082 18.9998C10.9608 23.9998 21.9608 18.9998 21.9608 7.4998C21.9599 7.22126 21.9331 6.9434 21.8808 6.6698C22.9014 5.6633 23.6216 4.39251 23.9608 2.9998V2.9998Z" stroke="#7C76BB" stroke-width="2" stroke-linecap="round" stroke-linejoin="round"/>
</g>
<defs>
<clipPath id="clip0">
<rect width="24" height="24" fill="white" transform="translate(0.960815)"/>
</clipPath>
</defs>
</svg>
